<?xml version="1.0" encoding="UTF-8"?>
<svg id="Layer_1" data-name="Layer 1" xmlns="http://www.w3.org/2000/svg" version="1.1" viewBox="0 0 452.8 101.1">
  <defs>
    <style>
      .cls-1 {
        fill: #000;
        stroke-width: 0px;
      }

      .cls-2 {
        fill: none;
        stroke: #fde047;
        stroke-width: 8px;
      }
    </style>
  </defs>
  <path class="cls-1" d="M411,20.5c6.5,0,11.4,1.7,14.7,5.2,3.4,3.4,5.1,8.5,5.1,15.1v21.2c0,6.6-1.7,11.8-5.1,15.2-3.3,3.4-8.3,5.1-14.7,5.1h-33.6V20.5h33.6ZM415.3,40.9c0-5.3-2.6-7.9-7.7-7.9h-14.6v37.2h14.6c5.2,0,7.7-2.6,7.7-7.9v-21.2h0v-.2Z"/>
  <path class="cls-1" d="M370.5,82.4h-47.8V20.5h47.8v12.4h-32.3v11.9h25.4v12.4h-25.4v12.8h32.3v12.4h0Z"/>
  <path class="cls-1" d="M285.3,70h31.4v12.4h-46.9V20.5h15.5v49.5Z"/>
  <path class="cls-1" d="M262,82.4h-31v-12.4h7.7v-37.2h-7.7v-12.4h31v12.4h-7.7v37.2h7.7v12.4Z"/>
  <path class="cls-1" d="M223.2,82.4h-16.3l-20.7-37.2v37.2h-15.5V20.5h16.3l20.7,37.2V20.5h15.5v61.9Z"/>
  <path class="cls-1" d="M144.8,20.5h15.5v45.1c0,6.2-1.4,10.7-4.1,13.5-2.7,2.8-7.1,4.1-13.1,4.1h-19.8c-6,0-10.4-1.4-13.2-4.1-2.7-2.8-4.1-7.4-4.1-13.5V20.5h15.5v45.1c0,3.5,1.7,5.3,5.2,5.3h12.9c3.4,0,5.2-1.8,5.2-5.3V20.5h0Z"/>
  <polyline class="cls-2" points="87.4 40.9 87.4 80.4 30.8 80.4 30.8 40.9"/>
  <path class="cls-2" d="M86.8,43.9c-6.8,9.1-9.3,11.5-18.8,20.5-2.5,2.4-5.6,5.3-9.3,8.9-4.3-4.4-7.6-7.8-10.4-10.6-7.4-7.5-10.9-11-16.8-18.9-1.7-3.8-.2-9.6,5.2-15.2,5.4-5.5,13.8-9.7,22.8-9.7s17.2,4.2,22.4,9.7,6.7,11.4,4.9,15.4h0Z"/>
</svg>